<svg width="48" height="48" viewBox="0 0 48 48" fill="none" xmlns="http://www.w3.org/2000/svg">
<path d="M20.6146 14.4398C21.8988 11.2384 22.5408 9.63773 23.584 9.41588C23.8583 9.35755 24.1418 9.35755 24.4161 9.41588C25.4592 9.63773 26.1013 11.2384 27.3854 14.4398C28.1157 16.2603 28.4808 17.1706 29.1641 17.7898C29.3557 17.9634 29.5637 18.1181 29.7852 18.2516C30.5749 18.7275 31.5607 18.8158 33.5323 18.9924C36.8698 19.2913 38.5385 19.4407 39.0481 20.3922C39.1537 20.5893 39.2254 20.8027 39.2604 21.0234C39.4294 22.0895 38.2026 23.2056 35.749 25.4379L35.0677 26.0577C33.9206 27.1014 33.347 27.6232 33.0153 28.2744C32.8163 28.665 32.6829 29.0857 32.6203 29.5196C32.5161 30.243 32.6841 31 33.02 32.5139L33.14 33.0549C33.7424 35.7699 34.0436 37.1275 33.6676 37.7947C33.3299 38.3941 32.7078 38.7778 32.0206 38.8107C31.2555 38.8472 30.1775 37.9688 28.0216 36.212C26.6012 35.0546 25.891 34.4759 25.1026 34.2498C24.3821 34.0432 23.618 34.0432 22.8975 34.2498C22.1091 34.4759 21.3989 35.0546 19.9785 36.212C17.8225 37.9688 16.7445 38.8472 15.9795 38.8107C15.2923 38.7778 14.6702 38.3941 14.3325 37.7947C13.9565 37.1275 14.2577 35.7699 14.8601 33.0549L14.9801 32.5139C15.316 31 15.4839 30.243 15.3797 29.5196C15.3172 29.0857 15.1838 28.665 14.9848 28.2744C14.653 27.6232 14.0795 27.1014 12.9324 26.0577L12.251 25.4379C9.79746 23.2056 8.57067 22.0895 8.73962 21.0234C8.77461 20.8027 8.84637 20.5893 8.95191 20.3922C9.46151 19.4407 11.1303 19.2913 14.4678 18.9924C16.4394 18.8158 17.4251 18.7275 18.2148 18.2516C18.4363 18.1181 18.6443 17.9634 18.836 17.7898C19.5192 17.1706 19.8843 16.2603 20.6146 14.4398Z" fill="#F1DD21" stroke="#F1DD21" stroke-width="4"/>
</svg>
