<svg width="48" height="48" viewBox="0 0 48 48" fill="none" xmlns="http://www.w3.org/2000/svg">
<path d="M20.2875 13.2551C21.8607 9.33313 22.6474 7.37213 24 7.37213C25.3527 7.37213 26.1393 9.33313 27.7125 13.2551L27.7857 13.4378C28.6745 15.6535 29.1189 16.7614 30.0246 17.4347C30.9303 18.1081 32.1192 18.2146 34.497 18.4275L34.9269 18.466C38.8186 18.8146 40.7644 18.9888 41.1807 20.2268C41.5971 21.4648 40.152 22.7795 37.262 25.4088L36.2974 26.2864C34.8344 27.6174 34.1029 28.2829 33.7619 29.1552C33.6983 29.3179 33.6454 29.4846 33.6036 29.6542C33.3795 30.5635 33.5937 31.529 34.0222 33.4599L34.1555 34.061C34.9429 37.6097 35.3365 39.384 34.6492 40.1493C34.3923 40.4353 34.0585 40.6412 33.6877 40.7424C32.6953 41.0132 31.2863 39.8651 28.4684 37.5689C26.6181 36.0612 25.6929 35.3073 24.6307 35.1377C24.2129 35.071 23.7871 35.071 23.3693 35.1377C22.3071 35.3073 21.3819 36.0612 19.5316 37.5689C16.7137 39.8651 15.3047 41.0132 14.3123 40.7424C13.9415 40.6412 13.6077 40.4353 13.3508 40.1493C12.6635 39.384 13.0571 37.6097 13.8445 34.061L13.9778 33.4599C14.4063 31.529 14.6205 30.5635 14.3964 29.6542C14.3546 29.4846 14.3017 29.3179 14.2381 29.1552C13.8971 28.2829 13.1656 27.6174 11.7026 26.2864L10.7381 25.4088C7.84797 22.7795 6.40292 21.4648 6.81928 20.2268C7.23564 18.9888 9.18145 18.8146 13.0731 18.466L13.503 18.4275C15.8808 18.2146 17.0697 18.1081 17.9754 17.4347C18.8811 16.7614 19.3255 15.6535 20.2143 13.4378L20.2875 13.2551Z" stroke="#F1DD21" stroke-width="4"/>
</svg>
